<?xml version="1.0" encoding="utf-8"?>
<!-- Generator: Adobe Illustrator 27.2.0, SVG Export Plug-In . SVG Version: 6.00 Build 0)  -->
<svg version="1.1" id="Layer_1" xmlns="http://www.w3.org/2000/svg" xmlns:xlink="http://www.w3.org/1999/xlink" x="0px" y="0px"
	 viewBox="0 0 131 44.39" style="enable-background:new 0 0 131 44.39;" xml:space="preserve">
<style type="text/css">
	.st0{fill:#4A2C8F;}
</style>
<g>
	<g>
		<g>
			<g>
				<g>
					<g>
						<path class="st0" d="M55.15,23.95h2.94l2.9,9.47l2.9-6.78h2.55l2.9,6.78l2.9-9.47h2.94L70.76,38.1h-2.57l-3.03-7.05
							l-3.01,7.05h-2.59L55.15,23.95z"/>
						<path class="st0" d="M77.35,36.08c-1.32-1.36-1.98-3.06-1.98-5.11c0-2.04,0.67-3.74,2-5.11c1.34-1.41,3.07-2.11,5.18-2.11
							s3.84,0.7,5.18,2.11c1.32,1.36,1.98,3.06,1.98,5.11c0,2.06-0.66,3.77-1.98,5.13c-1.34,1.41-3.07,2.11-5.18,2.11
							C80.45,38.21,78.71,37.5,77.35,36.08z M85.75,34.18c0.78-0.83,1.17-1.9,1.17-3.21s-0.39-2.37-1.17-3.19
							c-0.82-0.86-1.89-1.29-3.21-1.29c-1.33,0-2.4,0.43-3.21,1.29c-0.78,0.82-1.17,1.88-1.17,3.19s0.39,2.37,1.17,3.21
							c0.79,0.84,1.86,1.27,3.21,1.27C83.92,35.45,84.99,35.02,85.75,34.18z"/>
						<path class="st0" d="M91.25,23.95h6.82c1.46,0,2.66,0.42,3.59,1.25c0.92,0.84,1.38,1.98,1.38,3.42c0,0.93-0.2,1.73-0.6,2.39
							c-0.4,0.66-1,1.16-1.78,1.51l-0.36,0.13l3.26,5.45h-3.3l-2.82-4.92h-3.38v4.92h-2.8V23.95z M97.79,30.45
							c1.11,0,1.87-0.31,2.27-0.94c0.13-0.23,0.19-0.53,0.19-0.9c0-0.59-0.2-1.06-0.6-1.4c-0.45-0.37-1.04-0.56-1.79-0.56h-3.82v3.8
							H97.79z"/>
						<path class="st0" d="M105.09,23.95h2.8v5.26l5.61-5.26h4.01l-5.7,5.38l5.88,8.77h-3.44l-4.51-6.85l-1.84,1.73v5.13h-2.8V23.95
							z"/>
						<path class="st0" d="M119.72,36.89c-0.96-0.77-1.52-1.87-1.67-3.32l-0.08-0.75h2.88l0.04,0.63c0.04,0.64,0.35,1.13,0.94,1.48
							c0.58,0.33,1.39,0.5,2.44,0.5c0.88,0,1.54-0.09,1.97-0.28c0.43-0.19,0.69-0.39,0.8-0.6c0.1-0.22,0.15-0.45,0.15-0.69
							c0-0.15-0.03-0.28-0.08-0.38c-0.05-0.1-0.14-0.2-0.27-0.29c-0.37-0.26-0.85-0.47-1.44-0.65c-0.37-0.12-1.06-0.29-2.07-0.52
							c-0.65-0.14-1.39-0.37-2.21-0.69c-0.76-0.29-1.37-0.69-1.84-1.19c-0.56-0.55-0.84-1.29-0.84-2.23c0-1.27,0.48-2.29,1.44-3.07
							c0.93-0.76,2.28-1.13,4.05-1.13c1.79,0,3.19,0.42,4.2,1.27c0.97,0.79,1.48,1.8,1.54,3.01l0.04,0.71h-2.8l-0.08-0.6
							c-0.04-0.32-0.17-0.61-0.38-0.88c-0.22-0.27-0.61-0.49-1.17-0.65c-0.38-0.12-0.87-0.17-1.46-0.17c-0.59,0-1.07,0.06-1.44,0.19
							c-0.35,0.12-0.61,0.25-0.81,0.4c-0.15,0.14-0.25,0.28-0.29,0.42c-0.06,0.19-0.1,0.4-0.1,0.61c0,0.09,0.06,0.19,0.17,0.31
							c0.18,0.18,0.44,0.34,0.79,0.48c0.33,0.13,0.77,0.27,1.32,0.42l0.71,0.17l0.9,0.21l0.42,0.12c0.65,0.18,1.07,0.3,1.25,0.36
							c0.51,0.17,1.03,0.42,1.56,0.75c0.55,0.35,0.97,0.77,1.26,1.27c0.29,0.5,0.43,1.06,0.43,1.67c0,1.45-0.54,2.55-1.63,3.3
							c-1.02,0.72-2.39,1.08-4.11,1.08C122.29,38.15,120.78,37.73,119.72,36.89z"/>
					</g>
				</g>
				<path class="st0" d="M42.93,10.58c-2.06-3.25-4.92-5.77-8.58-7.55c-3.66-1.79-7.89-2.69-12.67-2.69H3.58
					c-1.42,0-2.57,1.15-2.57,2.57v40.17c0,0.53,0.43,0.96,0.96,0.96h19.7c4.79,0,9.01-0.9,12.67-2.68c3.66-1.79,6.52-4.32,8.58-7.59
					c2.06-3.27,3.09-7.15,3.09-11.65C46.02,17.68,44.99,13.83,42.93,10.58z"/>
			</g>
			<rect x="101.15" y="13.76" class="st0" width="28.84" height="2.3"/>
		</g>
	</g>
	<g>
		<path class="st0" d="M59.98,8.07c4.19,0,6.8,2.43,6.8,6.29c0,3.86-2.62,6.29-6.8,6.29h-4.59V8.07H59.98z M56.48,9.11v10.5h3.5
			c3.66,0,5.65-2.06,5.65-5.25c0-3.2-2-5.25-5.65-5.25H56.48z"/>
		<path class="st0" d="M73.3,12.37l-0.26,1c-0.41-0.22-0.99-0.34-1.5-0.34c-1.41,0-2.42,1.14-2.42,2.85v4.77h-1.02v-8.46h1.01v1.44
			c0.55-0.99,1.49-1.58,2.61-1.58C72.32,12.05,72.84,12.15,73.3,12.37z"/>
		<path class="st0" d="M81.98,20.65h-1.02v-1.63c-0.68,1.06-1.82,1.76-3.35,1.76c-2.37,0-4.22-1.84-4.22-4.36
			c0-2.52,1.85-4.37,4.22-4.37c1.54,0,2.67,0.71,3.35,1.76v-1.63h1.02V20.65z M74.43,16.43c0,1.91,1.38,3.4,3.3,3.4
			c1.91,0,3.29-1.46,3.29-3.4c0-1.94-1.38-3.41-3.29-3.41C75.78,13.02,74.43,14.51,74.43,16.43z"/>
		<path class="st0" d="M90.12,13.13h-3.64v7.52h-1.02v-7.52h-2.08v-0.93h2.08v-1.46c0-1.86,0.78-3.16,2.79-3.16
			c0.93,0,1.7,0.27,2.28,0.63l-0.37,0.85c-0.48-0.29-1.15-0.52-1.85-0.52c-1.31,0-1.83,0.82-1.83,2.2v1.46h3.64V13.13z"/>
		<path class="st0" d="M97.92,13.13h-3.9v4.61c0,1.43,0.75,2.08,1.88,2.08c0.73,0,1.39-0.25,1.89-0.65l0.49,0.76
			c-0.6,0.5-1.44,0.84-2.45,0.84c-1.76,0-2.82-0.98-2.82-3.03v-4.63h-1.94v-0.93h1.94V9.43h1.02v2.76h3.9V13.13z"/>
	</g>
</g>
</svg>
