<?xml version="1.0" encoding="utf-8"?>
<!-- Generator: Adobe Illustrator 27.2.0, SVG Export Plug-In . SVG Version: 6.00 Build 0)  -->
<svg version="1.1" id="Layer_1" xmlns="http://www.w3.org/2000/svg" xmlns:xlink="http://www.w3.org/1999/xlink" x="0px" y="0px"
	 viewBox="0 0 293.33 50.39" style="enable-background:new 0 0 293.33 50.39;" xml:space="preserve">
<style type="text/css">
	.st0{fill:#FFFFFF;}
</style>
<g>
	<g>
		<g>
			<g>
				<path class="st0" d="M10.19,49.48H2.88l8.67-15.61L0.86,14.35h7.57l6.81,12.74l6.6-12.74h7.32L10.19,49.48z"/>
				<path class="st0" d="M55.22,39.14H48.7v-2.74c-1.61,2-4.02,3.38-7.42,3.38c-6.83,0-12-5.6-12-13.05s5.17-13.05,12-13.05
					c3.4,0,5.78,1.38,7.42,3.4v-2.74h6.52V39.14z M36.11,26.73c0,3.79,2.48,6.83,6.4,6.83c3.81,0,6.4-2.92,6.4-6.83
					c0-3.91-2.58-6.83-6.4-6.83C38.59,19.9,36.11,22.95,36.11,26.73z"/>
				<path class="st0" d="M84.64,23.36v15.79h-6.68V25.51c0-3.58-1.79-5.55-4.84-5.55c-2.87,0-5.24,1.87-5.24,5.6v13.58h-6.68V14.35
					h6.5v2.92c1.77-2.64,4.48-3.58,7.29-3.58C80.63,13.69,84.64,17.6,84.64,23.36z"/>
				<rect x="90.43" y="14.35" class="st0" width="6.68" height="5.55"/>
				<rect x="90.43" y="17.13" class="st0" width="6.68" height="22.01"/>
				<path class="st0" d="M126.52,23.36v15.79h-6.68V25.51c0-3.58-1.79-5.55-4.84-5.55c-2.87,0-5.24,1.87-5.24,5.6v13.58h-6.68V14.35
					h6.5v2.92c1.77-2.64,4.48-3.58,7.29-3.58C122.51,13.69,126.52,17.6,126.52,23.36z"/>
				<path class="st0" d="M150.06,16.94V2.3h6.65v36.84h-6.52v-2.74c-1.61,2-4.02,3.38-7.42,3.38c-6.83,0-12-5.6-12-13.05
					s5.17-13.05,12-13.05C146.1,13.69,148.45,14.99,150.06,16.94z M137.6,26.73c0,3.79,2.48,6.83,6.4,6.83c3.81,0,6.4-2.92,6.4-6.83
					c0-3.91-2.58-6.83-6.4-6.83C140.08,19.9,137.6,22.95,137.6,26.73z"/>
				<path class="st0" d="M187.11,39.14h-6.52v-2.74c-1.61,2-4.02,3.38-7.42,3.38c-6.83,0-12-5.6-12-13.05s5.17-13.05,12-13.05
					c3.4,0,5.78,1.38,7.42,3.4v-2.74h6.52V39.14z M168,26.73c0,3.79,2.48,6.83,6.4,6.83c3.81,0,6.4-2.92,6.4-6.83
					c0-3.91-2.58-6.83-6.4-6.83C170.48,19.9,168,22.95,168,26.73z"/>
				<path class="st0" d="M199.26,49.48h-7.32l8.67-15.61l-10.69-19.52h7.57l6.81,12.74l6.6-12.74h7.32L199.26,49.48z"/>
				<path class="st0" d="M227.61,39.14h-6.68V14.35h6.68V39.14z"/>
				<path class="st0" d="M273.76,23.36v15.79h-6.65V25.51c0-3.58-1.82-5.55-4.84-5.55c-2.87,0-5.24,1.87-5.24,5.6v13.58h-6.68V25.51
					c0-3.58-1.79-5.55-4.84-5.55c-2.87,0-5.24,1.87-5.24,5.6v13.58h-6.68V14.35h6.5v2.92c1.77-2.64,4.48-3.58,7.29-3.58
					c3.58,0,6.52,1.61,8.19,4.25c1.92-3.15,5.17-4.25,8.42-4.25C269.82,13.69,273.76,17.6,273.76,23.36z"/>
			</g>
		</g>
	</g>
	<path class="st0" d="M282.41,17.74c-2.11-2.48-4.92-4.32-7.41-6.53c-1.07-0.95-1.94-2.05-2.29-3.49c-0.73-3.07,1.38-6.28,4.48-6.75
		c1.4-0.21,2.58,0.35,3.54,1.31c0.68,0.68,1.23,1.48,1.8,2.19c0.41-0.56,0.84-1.22,1.35-1.8c2.98-3.34,6.7-1.32,7.94,1.25
		c1.06,2.22,0.81,4.55-0.9,6.32c-1.19,1.23-2.58,2.27-3.87,3.4C285.52,14.99,283.98,16.35,282.41,17.74z"/>
</g>
</svg>
