<?xml version="1.0" encoding="utf-8"?>
<!-- Generator: Adobe Illustrator 27.2.0, SVG Export Plug-In . SVG Version: 6.00 Build 0)  -->
<svg version="1.1" id="Layer_1" xmlns="http://www.w3.org/2000/svg" xmlns:xlink="http://www.w3.org/1999/xlink" x="0px" y="0px"
	 viewBox="0 0 72 11.99" style="enable-background:new 0 0 72 11.99;" xml:space="preserve">
<style type="text/css">
	.st0{fill:#4A2C8F;}
</style>
<g>
	<g>
		<g>
			<g>
				<g>
					<path class="st0" d="M3.03,11.86H1.27l2.1-3.77L0.78,3.38h1.83l1.64,3.08l1.59-3.08h1.77L3.03,11.86z"/>
					<path class="st0" d="M13.91,9.37h-1.58V8.7c-0.39,0.48-0.97,0.82-1.79,0.82c-1.65,0-2.9-1.35-2.9-3.15s1.25-3.15,2.9-3.15
						c0.82,0,1.4,0.33,1.79,0.82V3.38h1.58V9.37z M9.29,6.37c0,0.91,0.6,1.65,1.55,1.65c0.92,0,1.55-0.7,1.55-1.65
						c0-0.95-0.62-1.65-1.55-1.65C9.89,4.72,9.29,5.45,9.29,6.37z"/>
					<path class="st0" d="M21.02,5.55v3.81H19.4V6.07c0-0.87-0.43-1.34-1.17-1.34c-0.69,0-1.27,0.45-1.27,1.35v3.28h-1.61V3.38h1.57
						v0.7c0.43-0.64,1.08-0.87,1.76-0.87C20.05,3.22,21.02,4.16,21.02,5.55z"/>
					<rect x="22.41" y="3.38" class="st0" width="1.61" height="1.34"/>
					<rect x="22.41" y="4.05" class="st0" width="1.61" height="5.32"/>
					<path class="st0" d="M31.13,5.55v3.81h-1.61V6.07c0-0.87-0.43-1.34-1.17-1.34c-0.69,0-1.27,0.45-1.27,1.35v3.28h-1.61V3.38
						h1.57v0.7c0.43-0.64,1.08-0.87,1.76-0.87C30.16,3.22,31.13,4.16,31.13,5.55z"/>
					<path class="st0" d="M36.82,4V0.47h1.61v8.9h-1.58V8.7c-0.39,0.48-0.97,0.82-1.79,0.82c-1.65,0-2.9-1.35-2.9-3.15
						s1.25-3.15,2.9-3.15C35.86,3.22,36.43,3.53,36.82,4z M33.81,6.37c0,0.91,0.6,1.65,1.55,1.65c0.92,0,1.55-0.7,1.55-1.65
						c0-0.95-0.62-1.65-1.55-1.65C34.41,4.72,33.81,5.45,33.81,6.37z"/>
					<path class="st0" d="M45.77,9.37h-1.58V8.7c-0.39,0.48-0.97,0.82-1.79,0.82c-1.65,0-2.9-1.35-2.9-3.15s1.25-3.15,2.9-3.15
						c0.82,0,1.4,0.33,1.79,0.82V3.38h1.58V9.37z M41.15,6.37c0,0.91,0.6,1.65,1.55,1.65c0.92,0,1.55-0.7,1.55-1.65
						c0-0.95-0.62-1.65-1.55-1.65C41.75,4.72,41.15,5.45,41.15,6.37z"/>
					<path class="st0" d="M48.71,11.86h-1.77l2.1-3.77l-2.58-4.72h1.83l1.64,3.08l1.59-3.08h1.77L48.71,11.86z"/>
					<path class="st0" d="M55.55,9.37h-1.61V3.38h1.61V9.37z"/>
					<path class="st0" d="M66.7,5.55v3.81H65.1V6.07c0-0.87-0.44-1.34-1.17-1.34c-0.69,0-1.27,0.45-1.27,1.35v3.28h-1.61V6.07
						c0-0.87-0.43-1.34-1.17-1.34c-0.69,0-1.27,0.45-1.27,1.35v3.28H57V3.38h1.57v0.7c0.43-0.64,1.08-0.87,1.76-0.87
						c0.87,0,1.58,0.39,1.98,1.03c0.46-0.76,1.25-1.03,2.03-1.03C65.75,3.22,66.7,4.16,66.7,5.55z"/>
				</g>
			</g>
		</g>
		<path class="st0" d="M68.79,4.2C68.28,3.6,67.6,3.15,67,2.62c-0.26-0.23-0.47-0.49-0.55-0.84c-0.18-0.74,0.33-1.52,1.08-1.63
			c0.34-0.05,0.62,0.08,0.86,0.32c0.16,0.16,0.3,0.36,0.44,0.53c0.1-0.13,0.2-0.3,0.33-0.44c0.72-0.81,1.62-0.32,1.92,0.3
			c0.26,0.54,0.2,1.1-0.22,1.53c-0.29,0.3-0.62,0.55-0.93,0.82C69.54,3.53,69.17,3.86,68.79,4.2z"/>
	</g>
</g>
</svg>
